<svg width="20" height="20" viewBox="0 0 20 20" fill="none" xmlns="http://www.w3.org/2000/svg">
<g id="playlist 1">
<g id="Group">
<g id="Group_2">
<g id="Group_3">
<path id="Vector" d="M11 3H1C0.447715 3 0 3.44772 0 4.00001C0 4.55229 0.447714 5.00001 0.999999 5.00001H11C11.5523 5.00001 12 4.55229 12 4.00001C12 3.44772 11.5523 3 11 3Z" fill="#423F51"/>
<path id="Vector_2" d="M11 7H1C0.447715 7 0 7.44772 0 8.00001C0 8.55229 0.447714 9.00001 0.999999 9.00001H11C11.5523 9.00001 12 8.55229 12 8.00001C12 7.44772 11.5523 7 11 7Z" fill="#423F51"/>
<path id="Vector_3" d="M7.00001 11H1C0.447715 11 0 11.4477 0 12C0 12.5523 0.447715 13 0.999999 13H7.00001C7.55229 13 8.00001 12.5523 8.00001 12C8.00001 11.4477 7.5523 11 7.00001 11Z" fill="#423F51"/>
<path id="Vector_4" d="M16 11V7.99999C16 7.44771 15.5523 7 15 7C14.4477 7 14 7.44771 14 7.99999V11H11C10.4477 11 10 11.4477 10 12C10 12.5523 10.4477 13 11 13H14V16C14 16.5523 14.4477 17 15 17C15.5523 17 16 16.5523 16 16V13H19.0001C19.5523 13 20 12.5523 20 12C20 11.4477 19.5523 11 19.0001 11H16Z" fill="#423F51"/>
</g>
</g>
</g>
</g>
</svg>
