<svg width="13" height="12" viewBox="0 0 13 12" fill="none" xmlns="http://www.w3.org/2000/svg">
<path d="M12.5492 2.50465L10.4942 0.449649C10.226 0.197721 9.87459 0.0531684 9.50674 0.0434883C9.1389 0.0338082 8.78033 0.159676 8.49925 0.397149L1.74925 7.14715C1.50682 7.39162 1.35587 7.71205 1.32175 8.05465L0.999246 11.1821C0.989143 11.292 1.0034 11.4027 1.04099 11.5064C1.07859 11.6101 1.1386 11.7043 1.21675 11.7821C1.28683 11.8517 1.36994 11.9067 1.46132 11.944C1.55269 11.9813 1.65054 12.0002 1.74925 11.9996H1.81675L4.94425 11.7146C5.28684 11.6805 5.60727 11.5296 5.85175 11.2871L12.6017 4.53715C12.8637 4.26037 13.0053 3.89103 12.9955 3.51005C12.9856 3.12907 12.8252 2.76753 12.5492 2.50465ZM9.99925 5.00965L7.98925 2.99965L9.45175 1.49965L11.4992 3.54715L9.99925 5.00965Z" fill="#FEFEFE"/>
</svg>
